<svg width="189" height="169" viewBox="0 0 189 169" fill="none" xmlns="http://www.w3.org/2000/svg">
<circle cx="95" cy="69.8491" r="27.8491" fill="#FF00B8"/>
<circle cx="107.377" cy="96.1509" r="27.8491" fill="#00C2FF"/>
<circle cx="82.6226" cy="96.1509" r="27.8491" fill="white"/>
<g style="mix-blend-mode:multiply">
<circle cx="95" cy="70" r="28" fill="#FF00B8"/>
</g>
<g style="mix-blend-mode:multiply">
<ellipse cx="107.5" cy="96" rx="27.5" ry="28" fill="#00C2FF"/>
</g>
<g style="mix-blend-mode:multiply">
<ellipse cx="82.5" cy="96" rx="27.5" ry="28" fill="white"/>
</g>
<path d="M44.4375 159.734C36.1406 157.391 29.8828 153.523 25.6641 148.133C21.4922 142.789 19.4062 135.711 19.4062 126.898V112.906C19.4062 101.516 14.4375 95.8203 4.5 95.8203V85.625C14.4375 85.625 19.4062 79.9531 19.4062 68.6094V53.9844C19.5 45.4062 21.5859 38.4922 25.6641 33.2422C29.7891 27.9453 36.0469 24.1016 44.4375 21.7109L47.1094 29.7969C37.3125 32.9375 32.4141 41.1172 32.4141 54.3359V68.5391C32.4141 79.1797 28.5 86.5859 20.6719 90.7578C28.5 94.9766 32.4141 102.453 32.4141 113.188V127.672C32.5547 140.562 37.4531 148.555 47.1094 151.648L44.4375 159.734Z" fill="white"/>
<path d="M141.336 151.648C150.852 148.602 155.773 140.844 156.102 128.375V112.906C156.102 102.078 160.344 94.6953 168.828 90.7578C160.344 86.9141 156.102 79.5312 156.102 68.6094V54.3359C156.102 41.1172 151.203 32.9375 141.406 29.7969L144.078 21.7109C152.375 24.0547 158.609 27.875 162.781 33.1719C166.953 38.4219 169.062 45.3828 169.109 54.0547V68.8203C169.109 80.0234 174.078 85.625 184.016 85.625V95.8203C174.078 95.8203 169.109 101.516 169.109 112.906V127.109C169.109 135.922 166.977 142.977 162.711 148.273C158.492 153.57 152.281 157.391 144.078 159.734L141.336 151.648Z" fill="white"/>
</svg>
